<?xml version="1.0" encoding="UTF-8"?>
<svg id="Layer_2" data-name="Layer 2" xmlns="http://www.w3.org/2000/svg" viewBox="0 0 391 391">
  <defs>
    <style>
      .cls-1 {
        fill: none;
        stroke: #000;
        stroke-miterlimit: 10;
        stroke-width: 5px;
      }
    </style>
  </defs>
  <g id="Layer_1-2" data-name="Layer 1">
    <g>
      <circle class="cls-1" cx="195.5" cy="195.5" r="193"/>
      <circle class="cls-1" cx="195.5" cy="195.5" r="140.75"/>
      <path d="m249.27,129.66c-7.43,14.15-8.61,30.94-8.31,46.46-11.06-29.24-21.83-59.43-45.18-80.15,11.56,15.71,22.87,32.56,29.97,52.57,5.61,14.45,9.6,29.45,15.94,43.75l3.7-.64c.04-1.17.08-2.35.12-3.53.02,0,.03-.01.05-.02-.02-.04-.03-.08-.05-.12.54-15.13,1.3-30.79,4.87-45.67,19.73,40.23,35.86,96.92,1.52,133.95-1.08.91-2.41,2.22-3.63,2.9-.13.13-.09.01-.08-.06.02-.25-.03-.58-.07-.85-4.08-38.15-31.45-68.13-55.75-95.79.37,40.83-17.87,33.04-37.12,58.86-5.74,11.66-9.46,24.69-11.69,37.56h0c-.01.45.26.99.32,1.53-.96.5-2.25-1.07-3.04-1.54-22.17-18.76-23.28-49.53-19.1-76.07,4.45-14.55,6.8-29.28,15.53-41.99.46,1.75.66,3.8,1.15,5.59,6.25,16.15,6.64,33.58,13.82,49.38l4.3-.75c-.33-59.49,42.18-72.93,39.1-119.02-4.97,46.89-38.02,54.49-43.37,101.87-4.9-17.01-7.65-33.57-12.27-51.6-20.66,25.17-28.98,59.2-27.91,91.34,4.99,25.46,15.83,46.89,41.19,56.83-.97-4.86-2.45-9.82-2.02-14.75,3.21-13.29,6.32-27.84,14.5-39.18,11.3-12.12,32.9-20.66,32.73-40.11,14.19,16.09,27.03,34.83,35.9,54.36,7.17,12.28,7.18,27.02,3.43,40.29,63.57-31,42.03-117.57,11.42-165.38Z"/>
      <line class="cls-1" x1="295.19" y1="294.53" x2="96.19" y2="95.53"/>
    </g>
  </g>
</svg>